<?xml version="1.0" encoding="utf-8"?>
<!-- Generator: Adobe Illustrator 17.0.0, SVG Export Plug-In . SVG Version: 6.00 Build 0)  -->
<!DOCTYPE svg PUBLIC "-//W3C//DTD SVG 1.1 Tiny//EN" "http://www.w3.org/Graphics/SVG/1.1/DTD/svg11-tiny.dtd" [
	<!ENTITY ns_flows "http://ns.adobe.com/Flows/1.0/">
	<!ENTITY ns_extend "http://ns.adobe.com/Extensibility/1.0/">
	<!ENTITY ns_ai "http://ns.adobe.com/AdobeIllustrator/10.0/">
	<!ENTITY ns_graphs "http://ns.adobe.com/Graphs/1.0/">
]>
<svg version="1.1" baseProfile="tiny" id="Layer_1" xmlns:x="&ns_extend;" xmlns:i="&ns_ai;" xmlns:graph="&ns_graphs;"
	 xmlns="http://www.w3.org/2000/svg" xmlns:xlink="http://www.w3.org/1999/xlink" xmlns:a="http://ns.adobe.com/AdobeSVGViewerExtensions/3.0/"
	 x="0px" y="0px" width="165px" height="145px" viewBox="0 0 165 145" xml:space="preserve">
<g>
	<path fill="#3E3935" d="M38.8,94.7c0.4-1.9,1.7-2.8,3.7-2.8c1.5,0,3.6,0.7,3.6,2.4c0,1.4-0.7,1.8-2,2.1c-5.2,1.1-13.2,0.5-13.2,7.9
		c0,4.7,3.4,6.9,7.7,6.9c2.7,0,5.6-0.8,7.5-2.8c0.1,0.7,0.2,1.4,0.4,2.1H54c-0.9-1.8-0.9-3.9-0.9-5.8v-9.9c0-6.4-5.2-7.6-10.6-7.6
		c-2.6,0-5.2,0.4-7.2,1.6c-2,1.2-3.4,3.1-3.5,6.1L38.8,94.7L38.8,94.7z M38.3,103.9c0-1.8,1.4-2.5,3.1-2.9c1.6-0.4,3.5-0.6,4.6-1.2
		c0.2,4.7-1,6.7-4.5,6.7C39.8,106.5,38.3,105.7,38.3,103.9"/>
	<rect x="56.7" y="79.2" fill="#3E3935" width="7.4" height="31.2"/>
	<path fill="#3E3935" d="M90.3,110.4h-7.2v-3.1H83c-1.4,2.3-4.3,3.8-6.9,3.8c-6.5,0-8.4-3.8-8.4-9.7V87.7h7.4v13.2
		c0,3,1.3,4.1,3.7,4.1c1.6,0,4.1-1,4.1-5.1V87.7h7.4V110.4z"/>
	<path fill="#3E3935" d="M100.4,94.7c0.3-1.9,1.6-2.8,3.7-2.8c1.5,0,3.6,0.7,3.6,2.4c0,1.4-0.7,1.8-2,2.1
		c-5.1,1.1-13.2,0.5-13.2,7.9c0,4.7,3.4,6.9,7.7,6.9c2.7,0,5.6-0.8,7.5-2.8c0.1,0.7,0.2,1.4,0.4,2.1h7.5c-0.9-1.8-0.9-3.9-0.9-5.8
		v-9.9c0-6.4-5.2-7.6-10.6-7.6c-2.6,0-5.2,0.4-7.2,1.6c-2,1.2-3.4,3.1-3.5,6.1L100.4,94.7L100.4,94.7z M99.9,103.9
		c0-1.8,1.4-2.5,3.1-2.9c1.6-0.4,3.5-0.6,4.6-1.2c0.2,4.7-1,6.7-4.5,6.7C101.4,106.5,99.9,105.7,99.9,103.9"/>
	<path fill="#3E3935" d="M118.3,87.7h7.2v4h0.1c1.1-2.9,3.6-4.4,6.8-4.4c0.6,0,1.2,0,1.7,0.2v6.8c-1-0.3-1.8-0.4-2.8-0.4
		c-3.7,0-5.6,2.5-5.6,5.4v11.2h-7.4L118.3,87.7L118.3,87.7z"/>
	<path fill="#8E9090" d="M82.5,50.9c-14.3,0-25.8-11.6-25.8-25.8H30.9c0,28.5,23.1,51.6,51.6,51.6c28.5,0,51.6-23.1,51.6-51.6h-25.8
		C108.3,39.3,96.8,50.9,82.5,50.9"/>
	<path fill="#615C58" d="M36.2,123.8c-0.3,0-0.5-0.1-0.7-0.2c-0.2-0.2-0.2-0.4-0.2-0.8c-0.3,0.4-0.6,0.6-1,0.8
		c-0.4,0.2-0.8,0.2-1.3,0.2c-0.3,0-0.6,0-0.8-0.1c-0.3-0.1-0.5-0.2-0.7-0.3c-0.2-0.1-0.4-0.3-0.5-0.6c-0.1-0.2-0.2-0.5-0.2-0.8
		c0-0.4,0.1-0.7,0.2-0.9c0.1-0.2,0.3-0.4,0.5-0.6c0.2-0.1,0.4-0.3,0.7-0.3c0.3-0.1,0.5-0.1,0.8-0.2c0.3-0.1,0.6-0.1,0.8-0.1
		c0.3,0,0.5-0.1,0.7-0.1c0.2-0.1,0.4-0.1,0.5-0.2c0.1-0.1,0.2-0.3,0.2-0.5c0-0.2,0-0.4-0.1-0.6c-0.1-0.1-0.2-0.3-0.3-0.3
		c-0.1-0.1-0.3-0.1-0.5-0.2c-0.2,0-0.3,0-0.5,0c-0.5,0-0.8,0.1-1.1,0.3c-0.3,0.2-0.5,0.5-0.5,1h-1.1c0-0.4,0.1-0.8,0.3-1
		c0.2-0.3,0.4-0.5,0.6-0.7c0.3-0.2,0.5-0.3,0.9-0.4c0.3-0.1,0.7-0.1,1-0.1c0.3,0,0.6,0,0.9,0.1c0.3,0,0.6,0.1,0.8,0.3
		c0.2,0.1,0.4,0.3,0.6,0.6c0.1,0.2,0.2,0.5,0.2,0.9v3.4c0,0.3,0,0.4,0,0.6c0,0.1,0.1,0.2,0.3,0.2c0.1,0,0.2,0,0.3-0.1v0.8
		C36.8,123.8,36.6,123.8,36.2,123.8 M34.7,120.5c-0.2,0-0.5,0.1-0.7,0.1c-0.2,0-0.5,0.1-0.7,0.1c-0.2,0-0.5,0.1-0.7,0.2
		c-0.2,0.1-0.4,0.2-0.5,0.4c-0.1,0.2-0.2,0.4-0.2,0.6c0,0.2,0,0.3,0.1,0.5c0.1,0.1,0.2,0.2,0.3,0.3c0.1,0.1,0.2,0.1,0.4,0.2
		c0.2,0,0.3,0.1,0.5,0.1c0.4,0,0.7-0.1,0.9-0.1c0.3-0.1,0.5-0.2,0.6-0.4c0.2-0.1,0.3-0.3,0.4-0.5c0.1-0.2,0.1-0.3,0.1-0.5v-1.1
		C35.1,120.4,34.9,120.5,34.7,120.5"/>
	<rect x="38.1" y="114.6" fill="#615C58" width="1.1" height="9.1"/>
	<path fill="#615C58" d="M45.3,123.7v-1h0c-0.2,0.4-0.5,0.7-0.9,0.9c-0.4,0.2-0.8,0.3-1.3,0.3c-0.4,0-0.8-0.1-1.1-0.2
		c-0.3-0.1-0.5-0.3-0.7-0.5c-0.2-0.2-0.3-0.5-0.4-0.8c-0.1-0.3-0.1-0.6-0.1-1v-4.3h1.1v4.4c0,0.4,0.1,0.7,0.4,1
		c0.2,0.2,0.6,0.4,1,0.4c0.3,0,0.6,0,0.9-0.2c0.2-0.1,0.4-0.2,0.6-0.4c0.2-0.2,0.3-0.4,0.4-0.7c0.1-0.3,0.1-0.5,0.1-0.8v-3.7h1.1
		v6.6L45.3,123.7L45.3,123.7z"/>
	<path fill="#615C58" d="M48.9,117.1v1h0c0.5-0.7,1.2-1.1,2.1-1.1c0.4,0,0.8,0.1,1.1,0.3c0.3,0.2,0.6,0.5,0.7,0.9
		c0.2-0.4,0.5-0.6,0.9-0.8c0.4-0.2,0.8-0.3,1.2-0.3c0.3,0,0.6,0,0.9,0.1c0.3,0.1,0.5,0.2,0.7,0.3c0.2,0.2,0.3,0.3,0.4,0.6
		c0.1,0.2,0.2,0.5,0.2,0.9v4.8H56v-4.3c0-0.2,0-0.4,0-0.6c0-0.2-0.1-0.3-0.2-0.5c-0.1-0.1-0.2-0.2-0.4-0.3s-0.4-0.1-0.6-0.1
		c-0.5,0-1,0.2-1.3,0.5c-0.3,0.3-0.5,0.7-0.5,1.2v4.1H52v-4.3c0-0.2,0-0.4-0.1-0.6c0-0.2-0.1-0.3-0.2-0.5c-0.1-0.1-0.2-0.2-0.4-0.3
		c-0.2-0.1-0.4-0.1-0.6-0.1c-0.3,0-0.6,0.1-0.8,0.2c-0.2,0.1-0.4,0.3-0.5,0.5c-0.1,0.2-0.2,0.4-0.3,0.6c-0.1,0.2-0.1,0.3-0.1,0.5
		v4.1h-1.1v-6.6L48.9,117.1L48.9,117.1z"/>
	<path fill="#615C58" d="M58.8,114.6h1.1v1.3h-1.1V114.6z M59.9,123.7h-1.1v-6.6h1.1V123.7z"/>
	<path fill="#615C58" d="M62.6,117.1v1h0c0.4-0.8,1.2-1.2,2.1-1.2c0.4,0,0.8,0.1,1.1,0.2c0.3,0.1,0.5,0.3,0.7,0.5
		c0.2,0.2,0.3,0.5,0.4,0.8c0.1,0.3,0.1,0.6,0.1,1v4.3h-1.1v-4.4c0-0.4-0.1-0.7-0.4-1c-0.2-0.2-0.6-0.4-1-0.4c-0.3,0-0.6,0.1-0.9,0.2
		c-0.2,0.1-0.4,0.2-0.6,0.4c-0.2,0.2-0.3,0.4-0.4,0.7c-0.1,0.3-0.1,0.5-0.1,0.8v3.7h-1.1v-6.6L62.6,117.1L62.6,117.1z"/>
	<path fill="#615C58" d="M68.7,114.6h1.1v1.3h-1.1V114.6z M69.8,123.7h-1.1v-6.6h1.1V123.7z"/>
	<path fill="#615C58" d="M71.3,119c0.1-0.4,0.3-0.8,0.6-1.1c0.3-0.3,0.6-0.6,1-0.7c0.4-0.2,0.9-0.3,1.4-0.3c0.5,0,1,0.1,1.4,0.3
		c0.4,0.2,0.7,0.4,1,0.7c0.3,0.3,0.5,0.7,0.6,1.1c0.1,0.4,0.2,0.9,0.2,1.4c0,0.5-0.1,0.9-0.2,1.3c-0.1,0.4-0.3,0.8-0.6,1.1
		c-0.3,0.3-0.6,0.6-1,0.7c-0.4,0.2-0.9,0.3-1.4,0.3c-0.5,0-1-0.1-1.4-0.3c-0.4-0.2-0.7-0.4-1-0.7c-0.3-0.3-0.5-0.7-0.6-1.1
		c-0.1-0.4-0.2-0.9-0.2-1.3C71.1,119.9,71.2,119.5,71.3,119 M72.4,121.5c0.1,0.3,0.3,0.6,0.4,0.8c0.2,0.2,0.4,0.4,0.7,0.5
		c0.3,0.1,0.5,0.2,0.8,0.2c0.3,0,0.5-0.1,0.8-0.2c0.3-0.1,0.5-0.3,0.7-0.5c0.2-0.2,0.3-0.5,0.4-0.8c0.1-0.3,0.2-0.7,0.2-1.1
		c0-0.4-0.1-0.8-0.2-1.1c-0.1-0.3-0.3-0.6-0.4-0.8c-0.2-0.2-0.4-0.4-0.7-0.5c-0.2-0.1-0.5-0.2-0.8-0.2c-0.3,0-0.5,0.1-0.8,0.2
		c-0.2,0.1-0.5,0.3-0.7,0.5c-0.2,0.2-0.3,0.5-0.4,0.8c-0.1,0.3-0.2,0.7-0.2,1.1C72.3,120.8,72.3,121.1,72.4,121.5"/>
	<path fill="#615C58" d="M87.4,123.8c-0.3,0-0.5-0.1-0.7-0.2c-0.2-0.2-0.2-0.4-0.2-0.8c-0.3,0.4-0.6,0.6-1,0.8
		c-0.4,0.2-0.8,0.2-1.3,0.2c-0.3,0-0.6,0-0.8-0.1c-0.3-0.1-0.5-0.2-0.7-0.3c-0.2-0.1-0.4-0.3-0.5-0.6c-0.1-0.2-0.2-0.5-0.2-0.8
		c0-0.4,0.1-0.7,0.2-0.9c0.1-0.2,0.3-0.4,0.5-0.6c0.2-0.1,0.4-0.3,0.7-0.3c0.3-0.1,0.5-0.1,0.8-0.2c0.3-0.1,0.6-0.1,0.8-0.1
		c0.3,0,0.5-0.1,0.7-0.1c0.2-0.1,0.4-0.1,0.5-0.2c0.1-0.1,0.2-0.3,0.2-0.5c0-0.2,0-0.4-0.1-0.6c-0.1-0.1-0.2-0.3-0.3-0.3
		c-0.1-0.1-0.3-0.1-0.5-0.2c-0.2,0-0.3,0-0.5,0c-0.5,0-0.8,0.1-1.1,0.3c-0.3,0.2-0.5,0.5-0.5,1h-1.1c0-0.4,0.1-0.8,0.3-1
		c0.2-0.3,0.4-0.5,0.6-0.7c0.3-0.2,0.5-0.3,0.9-0.4c0.3-0.1,0.7-0.1,1-0.1c0.3,0,0.6,0,0.9,0.1c0.3,0,0.6,0.1,0.8,0.3
		c0.2,0.1,0.4,0.3,0.6,0.6c0.1,0.2,0.2,0.5,0.2,0.9v3.4c0,0.3,0,0.4,0,0.6c0,0.1,0.1,0.2,0.3,0.2c0.1,0,0.2,0,0.3-0.1v0.8
		C87.9,123.8,87.7,123.8,87.4,123.8 M85.8,120.5c-0.2,0-0.5,0.1-0.7,0.1c-0.2,0-0.5,0.1-0.7,0.1c-0.2,0-0.5,0.1-0.7,0.2
		c-0.2,0.1-0.4,0.2-0.5,0.4c-0.1,0.2-0.2,0.4-0.2,0.6c0,0.2,0,0.3,0.1,0.5c0.1,0.1,0.2,0.2,0.3,0.3c0.1,0.1,0.2,0.1,0.4,0.2
		c0.2,0,0.3,0.1,0.5,0.1c0.4,0,0.7-0.1,0.9-0.1c0.3-0.1,0.5-0.2,0.6-0.4c0.2-0.1,0.3-0.3,0.4-0.5c0.1-0.2,0.1-0.3,0.1-0.5v-1.1
		C86.2,120.4,86.1,120.5,85.8,120.5"/>
	<path fill="#615C58" d="M90.1,117.1v1.4h0c0.3-0.5,0.6-0.9,1-1.2c0.4-0.3,0.9-0.4,1.4-0.4v1.1c-0.4,0-0.8,0.1-1.1,0.2
		c-0.3,0.1-0.6,0.3-0.7,0.5c-0.2,0.2-0.3,0.5-0.4,0.8c-0.1,0.3-0.1,0.7-0.1,1.1v2.9h-1.1v-6.6H90.1z"/>
	<path fill="#615C58" d="M97.9,125.5c-0.5,0.5-1.3,0.8-2.3,0.8c-0.3,0-0.6,0-0.9-0.1c-0.3-0.1-0.6-0.2-0.9-0.3
		c-0.3-0.2-0.5-0.4-0.6-0.6c-0.2-0.2-0.3-0.5-0.3-0.9H94c0,0.2,0.1,0.4,0.2,0.5c0.1,0.1,0.3,0.2,0.4,0.3c0.2,0.1,0.3,0.1,0.5,0.2
		c0.2,0,0.4,0.1,0.6,0.1c0.4,0,0.7-0.1,0.9-0.2c0.2-0.1,0.4-0.3,0.6-0.5c0.2-0.2,0.3-0.5,0.3-0.8c0.1-0.3,0.1-0.6,0.1-1v-0.4h0
		c-0.2,0.4-0.5,0.7-0.8,0.9c-0.4,0.2-0.8,0.3-1.2,0.3c-0.5,0-0.9-0.1-1.3-0.3c-0.4-0.2-0.7-0.4-0.9-0.7c-0.2-0.3-0.4-0.7-0.6-1.1
		c-0.1-0.4-0.2-0.8-0.2-1.3c0-0.4,0.1-0.8,0.2-1.2c0.1-0.4,0.3-0.8,0.5-1.1c0.2-0.3,0.6-0.6,0.9-0.8c0.4-0.2,0.9-0.3,1.4-0.3
		c0.4,0,0.8,0.1,1.1,0.3c0.3,0.2,0.6,0.5,0.8,0.8h0v-0.9h1v6C98.7,124.2,98.4,125,97.9,125.5 M96.6,122.6c0.2-0.1,0.5-0.3,0.6-0.6
		c0.2-0.2,0.3-0.5,0.3-0.8c0.1-0.3,0.1-0.6,0.1-0.9c0-0.3,0-0.6-0.1-0.9c-0.1-0.3-0.2-0.5-0.3-0.8c-0.2-0.2-0.3-0.4-0.6-0.5
		c-0.2-0.1-0.5-0.2-0.9-0.2c-0.3,0-0.6,0.1-0.9,0.2c-0.2,0.1-0.4,0.3-0.6,0.5c-0.2,0.2-0.3,0.5-0.3,0.8c-0.1,0.3-0.1,0.6-0.1,0.9
		c0,0.3,0,0.6,0.1,0.9c0.1,0.3,0.2,0.6,0.3,0.8c0.1,0.2,0.3,0.4,0.6,0.6c0.2,0.1,0.5,0.2,0.9,0.2C96,122.8,96.3,122.7,96.6,122.6"/>
	<path fill="#615C58" d="M105,123.3c-0.5,0.4-1.1,0.6-1.9,0.6c-0.5,0-1-0.1-1.4-0.3c-0.4-0.2-0.7-0.4-1-0.7
		c-0.3-0.3-0.5-0.7-0.6-1.1c-0.1-0.4-0.2-0.9-0.2-1.4c0-0.5,0.1-1,0.2-1.4c0.2-0.4,0.4-0.8,0.6-1.1c0.3-0.3,0.6-0.5,1-0.7
		c0.4-0.2,0.8-0.3,1.2-0.3c0.6,0,1.1,0.1,1.5,0.4c0.4,0.2,0.7,0.5,0.9,0.9c0.2,0.4,0.4,0.8,0.5,1.2c0.1,0.4,0.1,0.9,0.1,1.3h-4.9
		c0,0.3,0,0.6,0.1,0.8c0.1,0.3,0.2,0.5,0.4,0.7c0.2,0.2,0.4,0.4,0.6,0.5c0.3,0.1,0.6,0.2,0.9,0.2c0.5,0,0.8-0.1,1.1-0.3
		c0.3-0.2,0.5-0.5,0.6-1h1.1C105.8,122.3,105.5,122.9,105,123.3 M104.7,119c-0.1-0.2-0.2-0.4-0.4-0.6c-0.2-0.2-0.4-0.3-0.6-0.4
		c-0.2-0.1-0.5-0.1-0.7-0.1c-0.3,0-0.5,0.1-0.8,0.1c-0.2,0.1-0.4,0.2-0.6,0.4c-0.2,0.2-0.3,0.4-0.4,0.6c-0.1,0.2-0.1,0.5-0.2,0.7
		h3.8C104.9,119.5,104.8,119.3,104.7,119"/>
	<path fill="#615C58" d="M108.2,117.1v1h0c0.5-0.8,1.2-1.2,2.1-1.2c0.4,0,0.8,0.1,1.1,0.2c0.3,0.1,0.5,0.3,0.7,0.5
		c0.2,0.2,0.3,0.5,0.4,0.8c0.1,0.3,0.1,0.6,0.1,1v4.3h-1.1v-4.4c0-0.4-0.1-0.7-0.4-1c-0.2-0.2-0.6-0.4-1-0.4c-0.3,0-0.6,0.1-0.9,0.2
		c-0.2,0.1-0.4,0.2-0.6,0.4c-0.2,0.2-0.3,0.4-0.4,0.7c-0.1,0.3-0.1,0.5-0.1,0.8v3.7h-1.1v-6.6L108.2,117.1L108.2,117.1z"/>
	<path fill="#615C58" d="M117,117.1v1h-1.3v4.1c0,0.1,0,0.2,0,0.3c0,0.1,0.1,0.1,0.1,0.2c0.1,0,0.1,0.1,0.3,0.1c0.1,0,0.2,0,0.4,0
		h0.5v1h-0.8c-0.3,0-0.5,0-0.7-0.1c-0.2,0-0.4-0.1-0.5-0.2c-0.1-0.1-0.2-0.2-0.3-0.4c-0.1-0.2-0.1-0.4-0.1-0.7v-4.2h-1.1v-1h1.1v-2
		h1.1v2C115.7,117.1,117,117.1,117,117.1z"/>
	<path fill="#615C58" d="M118.3,114.6h1.1v1.3h-1.1V114.6z M119.4,123.7h-1.1v-6.6h1.1V123.7z"/>
	<path fill="#615C58" d="M122.1,117.1v1h0c0.4-0.8,1.2-1.2,2.1-1.2c0.4,0,0.8,0.1,1.1,0.2c0.3,0.1,0.5,0.3,0.7,0.5
		c0.2,0.2,0.3,0.5,0.4,0.8c0.1,0.3,0.1,0.6,0.1,1v4.3h-1.1v-4.4c0-0.4-0.1-0.7-0.4-1c-0.2-0.2-0.6-0.4-1-0.4c-0.3,0-0.6,0.1-0.9,0.2
		c-0.2,0.1-0.4,0.2-0.6,0.4c-0.2,0.2-0.3,0.4-0.4,0.7c-0.1,0.3-0.1,0.5-0.1,0.8v3.7H121v-6.6L122.1,117.1L122.1,117.1z"/>
	<path fill="#615C58" d="M128,119c0.1-0.4,0.3-0.8,0.6-1.1c0.3-0.3,0.6-0.6,1-0.7c0.4-0.2,0.9-0.3,1.4-0.3c0.5,0,1,0.1,1.4,0.3
		c0.4,0.2,0.7,0.4,1,0.7c0.3,0.3,0.5,0.7,0.6,1.1c0.1,0.4,0.2,0.9,0.2,1.4c0,0.5-0.1,0.9-0.2,1.3c-0.1,0.4-0.3,0.8-0.6,1.1
		c-0.3,0.3-0.6,0.6-1,0.7c-0.4,0.2-0.9,0.3-1.4,0.3c-0.5,0-1-0.1-1.4-0.3c-0.4-0.2-0.7-0.4-1-0.7c-0.3-0.3-0.5-0.7-0.6-1.1
		c-0.1-0.4-0.2-0.9-0.2-1.3C127.8,119.9,127.8,119.5,128,119 M129.1,121.5c0.1,0.3,0.3,0.6,0.4,0.8c0.2,0.2,0.4,0.4,0.7,0.5
		c0.3,0.1,0.5,0.2,0.8,0.2c0.3,0,0.5-0.1,0.8-0.2c0.2-0.1,0.5-0.3,0.7-0.5c0.2-0.2,0.3-0.5,0.4-0.8c0.1-0.3,0.2-0.7,0.2-1.1
		c0-0.4-0.1-0.8-0.2-1.1c-0.1-0.3-0.2-0.6-0.4-0.8c-0.2-0.2-0.4-0.4-0.7-0.5c-0.3-0.1-0.5-0.2-0.8-0.2c-0.3,0-0.5,0.1-0.8,0.2
		c-0.2,0.1-0.5,0.3-0.7,0.5c-0.2,0.2-0.3,0.5-0.4,0.8c-0.1,0.3-0.2,0.7-0.2,1.1C128.9,120.8,128.9,121.1,129.1,121.5"/>
</g>
</svg>
