<svg width="65" height="65" viewBox="0 0 65 65" fill="none" xmlns="http://www.w3.org/2000/svg">
<rect x="0.394531" y="0.0654297" width="64.43" height="64.43" rx="32.215" fill="#357EEB"/>
<path fill-rule="evenodd" clip-rule="evenodd" d="M32.6085 20.1877C34.5708 20.1141 36.5359 20.1688 38.4912 20.3513C39.4396 20.3397 40.3818 20.5062 41.2689 20.8422C42.4927 21.4125 43.4763 22.3961 44.0466 23.6199C44.3826 24.507 44.5491 25.4492 44.5375 26.3976C44.5375 27.8683 44.7011 28.3592 44.7011 32.2803C44.7747 34.2427 44.72 36.2078 44.5375 38.163C44.5491 39.1115 44.3826 40.0537 44.0466 40.9408C43.4763 42.1646 42.4927 43.1482 41.2689 43.7185C40.3818 44.0545 39.4396 44.221 38.4912 44.2093C37.0205 44.2093 36.5296 44.3729 32.6085 44.3729C30.6461 44.4466 28.681 44.3919 26.7258 44.2093C25.7773 44.221 24.8351 44.0545 23.948 43.7185C22.7242 43.1482 21.7406 42.1646 21.1703 40.9408C20.8343 40.0537 20.6678 39.1115 20.6795 38.163C20.6795 36.6924 20.5159 36.2015 20.5159 32.2803C20.4422 30.318 20.4969 28.3529 20.6795 26.3976C20.6678 25.4492 20.8343 24.507 21.1703 23.6199C21.4554 23.0139 21.8421 22.4611 22.3137 21.9856C22.6968 21.4139 23.2797 21.0061 23.948 20.8422C24.8351 20.5062 25.7773 20.3397 26.7258 20.3513C28.681 20.1688 30.6461 20.1141 32.6085 20.1877V20.1877ZM32.6085 17.5736C30.5916 17.5017 28.5722 17.5564 26.5622 17.7372C25.3344 17.7343 24.1165 17.9554 22.9682 18.3898C21.9766 18.7133 21.0792 19.2744 20.3541 20.0241C19.6034 20.7496 19.0417 21.6477 18.718 22.6401C18.2054 23.7653 17.9811 25.0004 18.0653 26.234C17.8845 28.2441 17.8298 30.2635 17.9017 32.2803C17.8298 34.2972 17.8845 36.3166 18.0653 38.3266C18.0628 39.5551 18.2845 40.7737 18.7198 41.9224C19.0433 42.914 19.6044 43.8114 20.3541 44.5366C21.0792 45.2863 21.9766 45.8473 22.9682 46.1708C24.117 46.6061 25.3355 46.8279 26.564 46.8253C28.5735 47.0055 30.5922 47.0595 32.6085 46.9871C34.6253 47.059 36.6447 47.0043 38.6548 46.8235C39.8832 46.826 41.1018 46.6043 42.2506 46.169C43.2348 45.8299 44.1289 45.2711 44.865 44.535C45.6011 43.7989 46.1599 42.9048 46.499 41.9206C46.9342 40.7718 47.156 39.5533 47.1534 38.3248C47.1516 36.6924 47.3152 36.2015 47.3152 32.2803C47.3871 30.2635 47.3324 28.2441 47.1516 26.234C47.1542 25.0056 46.9324 23.787 46.4971 22.6382C46.1736 21.6467 45.6126 20.7492 44.8628 20.0241C44.1377 19.2744 43.2403 18.7133 42.2487 18.3898C41.1004 17.9554 39.8825 17.7343 38.6548 17.7372C36.6447 17.5564 34.6253 17.5017 32.6085 17.5736V17.5736ZM32.6085 24.7634C31.6168 24.747 30.632 24.9302 29.7125 25.3021C28.7931 25.6741 27.9579 26.2272 27.2566 26.9285C26.5553 27.6298 26.0022 28.465 25.6303 29.3844C25.2583 30.3038 25.0751 31.2887 25.0915 32.2803C25.0915 33.7671 25.5323 35.2204 26.3583 36.4565C27.1843 37.6927 28.3583 38.6562 29.7318 39.2251C31.1054 39.7941 32.6168 39.9429 34.075 39.6529C35.5331 39.3628 36.8725 38.6469 37.9238 37.5956C38.975 36.5444 39.691 35.205 39.981 33.7468C40.271 32.2887 40.1222 30.7773 39.5532 29.4037C38.9843 28.0302 38.0208 26.8562 36.7847 26.0302C35.5485 25.2042 34.0952 24.7634 32.6085 24.7634V24.7634ZM32.6085 37.1832C31.9613 37.1952 31.3184 37.0765 30.7181 36.8344C30.1179 36.5922 29.5726 36.2315 29.1149 35.7738C28.6573 35.3162 28.2966 34.7709 28.0544 34.1707C27.8123 33.5704 27.6936 32.9275 27.7056 32.2803C27.6936 31.6332 27.8123 30.9903 28.0544 30.39C28.2966 29.7898 28.6573 29.2445 29.1149 28.7868C29.5726 28.3291 30.1179 27.9684 30.7181 27.7263C31.3184 27.4841 31.9613 27.3655 32.6085 27.3775C33.2556 27.3655 33.8985 27.4841 34.4988 27.7263C35.099 27.9684 35.6443 28.3291 36.102 28.7868C36.5597 29.2445 36.9204 29.7898 37.1625 30.39C37.4047 30.9903 37.5233 31.6332 37.5113 32.2803C37.5233 32.9275 37.4047 33.5704 37.1625 34.1707C36.9204 34.7709 36.5597 35.3162 36.102 35.7738C35.6443 36.2315 35.099 36.5922 34.4988 36.8344C33.8985 37.0765 33.2556 37.1952 32.6085 37.1832V37.1832ZM40.4527 22.6401C40.0971 22.6401 39.7495 22.7455 39.4538 22.9431C39.1581 23.1406 38.9277 23.4214 38.7916 23.7499C38.6555 24.0785 38.6199 24.44 38.6893 24.7887C38.7587 25.1375 38.9299 25.4578 39.1814 25.7093C39.4328 25.9607 39.7532 26.132 40.1019 26.2013C40.4507 26.2707 40.8122 26.2351 41.1407 26.099C41.4692 25.9629 41.75 25.7325 41.9476 25.4368C42.1451 25.1412 42.2506 24.7936 42.2506 24.438C42.2467 23.9623 42.0561 23.5073 41.7197 23.1709C41.3834 22.8346 40.9283 22.6439 40.4527 22.6401" fill="white"/>
</svg>
