<svg width="65" height="65" viewBox="0 0 65 65" fill="none" xmlns="http://www.w3.org/2000/svg">
<rect x="0.0546875" y="0.141602" width="64.43" height="64.43" rx="5" fill="#357EEB"/>
<path d="M48.3004 18.7168C48.0926 18.7168 47.8847 18.8727 47.8847 19.1325V26.2514H44.0395V25.368C44.0395 25.1601 43.8836 24.9523 43.6238 24.9523H38.1158V23.8611C38.1158 23.6532 37.9599 23.4454 37.7001 23.4454H34.998V21.7306C34.998 21.5228 34.8421 21.3149 34.5823 21.3149C31.1008 21.3149 22.0074 21.3149 20.9162 21.3149C18.0063 21.3149 15.668 23.6532 15.668 26.5631C15.668 29.473 18.0063 31.8113 20.9162 31.8113H24.5536L21.9035 45.5294C21.9035 45.6334 21.9035 45.7373 22.0074 45.8412C22.1113 45.9451 22.2152 45.9971 22.3192 45.9971H27.7752C27.9831 45.9971 28.139 45.8412 28.139 45.6853L29.8537 36.9556H31.2567C31.4646 36.9556 31.6724 36.7997 31.6724 36.5399C31.6724 36.436 31.6205 36.3321 31.5685 36.2801C31.1008 35.5526 31.1528 34.8252 31.6205 34.0977C31.6724 33.9938 31.6724 33.8379 31.6205 33.682C31.5685 33.5261 31.4126 33.4741 31.2567 33.4741H30.5292L30.841 31.8113H34.6343C34.8421 31.8113 35.05 31.6555 35.05 31.3956V29.6809H37.752C37.9599 29.6809 38.1677 29.525 38.1677 29.2652V28.174H43.7797C43.9875 28.174 44.1954 28.0181 44.1954 27.7583V26.8749H48.0406V37.3713C48.0406 37.5792 48.1965 37.787 48.4563 37.787C48.7161 37.787 48.872 37.6311 48.872 37.3713V19.1325C48.6642 18.9246 48.5083 18.7168 48.3004 18.7168ZM30.6332 36.1762H30.0096L30.3734 34.2536H30.6332C30.3734 34.9291 30.3734 35.5526 30.6332 36.1762ZM16.4994 26.6151C16.4994 24.1729 18.4739 22.1463 20.9681 22.1463H30.1655V31.0839C26.7879 31.0839 24.3977 31.0839 20.9681 31.0839C18.4739 31.0839 16.4994 29.0573 16.4994 26.6151ZM27.4635 45.2696H22.7349L25.333 31.8633H30.0616L29.2821 35.9683L29.1782 36.5399L28.7625 38.5665H26.4242C26.2164 38.5665 26.0085 38.7224 26.0085 38.9822C26.0085 39.242 26.1644 39.3979 26.4242 39.3979H28.6066L28.3988 40.4371H26.1124C25.9046 40.4371 25.6967 40.593 25.6967 40.8528C25.6967 41.1126 25.8526 41.2685 26.1124 41.2685H28.2429L27.4635 45.2696ZM34.2186 31.0839H30.893V22.1463H34.2186C34.2186 24.8484 34.2186 28.3818 34.2186 31.0839ZM37.3363 29.0054H35.05V24.2768H37.3363C37.3363 25.8357 37.3363 27.9142 37.3363 29.0054ZM43.312 27.4985H38.1158V25.7317H43.312V27.4985Z" fill="white" stroke="white" stroke-width="0.2"/>
<path d="M28.0365 28.9537V24.0173C28.0365 23.8094 27.8806 23.6016 27.6208 23.6016H20.45C20.2421 23.6016 20.0343 23.7574 20.0343 24.0173C20.1902 28.4341 19.7225 29.3174 20.45 29.3174H27.6208C27.8806 29.3694 28.0365 29.1615 28.0365 28.9537ZM27.257 28.59H20.8657V24.433H27.257V28.59Z" fill="white" stroke="white" stroke-width="0.2"/>
<path d="M22.1657 26.0433H26.0109C26.2188 26.0433 26.4266 25.8874 26.4266 25.6276C26.4266 25.3678 26.2707 25.2119 26.0109 25.2119H22.1657C21.9579 25.2119 21.75 25.3678 21.75 25.6276C21.75 25.8874 21.9059 26.0433 22.1657 26.0433Z" fill="white" stroke="white" stroke-width="0.2"/>
<path d="M22.1669 27.7062H26.0121C26.22 27.7062 26.4278 27.5503 26.4278 27.2905C26.4278 27.0307 26.22 26.9268 25.9601 26.9268H22.1149C21.9071 26.9268 21.6992 27.0826 21.6992 27.3425C21.6992 27.6023 21.9071 27.7062 22.1669 27.7062Z" fill="white" stroke="white" stroke-width="0.2"/>
<path d="M42.8978 20.4314C42.7939 20.5873 42.8459 20.8471 43.0017 20.9511L46.4832 23.1335C46.6911 23.2374 46.8989 23.1854 47.0029 23.0296C47.1068 22.8737 47.0548 22.6139 46.8989 22.5099L43.4174 20.3275C43.2616 20.2236 43.0537 20.2755 42.8978 20.4314Z" fill="white" stroke="white" stroke-width="0.2"/>
<path d="M41.5465 23.3413L45.5476 24.4325C45.7555 24.4845 45.9633 24.3806 46.0153 24.1727C46.0672 23.9649 45.9633 23.757 45.7555 23.705L41.7543 22.6138C41.5465 22.5619 41.3386 22.6658 41.2867 22.8736C41.2347 23.0815 41.3386 23.2893 41.5465 23.3413Z" fill="white" stroke="white" stroke-width="0.2"/>
<path d="M45.5972 28.7974L41.6481 29.8886C41.4402 29.9406 41.3363 30.1484 41.3882 30.3563C41.4402 30.5641 41.6481 30.6681 41.8559 30.6161L45.8051 29.5249C46.0129 29.4729 46.1168 29.2651 46.0649 29.0572C46.0129 28.8494 45.8051 28.7455 45.5972 28.7974Z" fill="white" stroke="white" stroke-width="0.2"/>
<path d="M42.9994 32.7987C43.1033 33.0065 43.3631 33.0585 43.519 32.9026L46.9485 30.7202C47.1044 30.6163 47.2083 30.3565 47.0525 30.2006C46.9485 30.0447 46.6887 29.9408 46.5328 30.0966L43.1033 32.2791C42.9474 32.331 42.8955 32.5908 42.9994 32.7987Z" fill="white" stroke="white" stroke-width="0.2"/>
</svg>
