<svg width="65" height="66" viewBox="0 0 65 66" fill="none" xmlns="http://www.w3.org/2000/svg">
<rect x="0.511719" y="0.850586" width="64.43" height="64.43" rx="32.215" fill="#357EEB"/>
<path fill-rule="evenodd" clip-rule="evenodd" d="M31.8713 45.1837C28.3872 45.215 24.3835 44.4308 20.8688 41.9526C17.8737 39.8407 16.188 37.0682 16.1522 33.538C16.142 33.4842 16.1367 33.429 16.1367 33.3728C16.1367 33.3137 16.1426 33.2557 16.1538 33.1992C16.1637 32.6922 16.2069 32.1698 16.2844 31.6319C16.59 29.6242 17.568 27.9616 19.035 26.7068C20.1047 25.7971 20.8076 24.6991 21.3578 23.4129C21.6634 22.7228 22.2135 22.0954 22.7331 21.5621C23.5889 20.6838 24.4446 20.7465 25.1781 21.7503C25.7894 22.5973 26.5229 22.6601 27.4397 22.4405C30.8933 21.6249 34.3775 21.719 37.8922 22.3464C38.4729 22.4405 39.2981 22.2836 39.7565 21.9072C41.1013 20.8092 43.0267 20.9347 43.5768 22.5973C44.1342 24.2616 45.1746 25.3869 46.2453 26.5451C46.4663 26.7842 46.6886 27.0246 46.9082 27.2714C50.6063 31.2868 49.9644 37.5608 45.5634 41.2311C42.3849 43.8975 38.045 45.215 31.8713 45.1837ZM16.8173 34.3105C16.8347 34.3182 16.8523 34.3257 16.8701 34.3328C16.863 34.3524 16.8562 34.3721 16.8496 34.392L16.8173 34.3105ZM26.928 30.6771L26.9065 30.4918C26.9206 30.5344 26.936 30.5762 26.9528 30.6172C26.9442 30.637 26.9359 30.657 26.928 30.6771ZM22.2709 33.247C22.2462 33.2543 22.2217 33.2618 22.1974 33.2695C22.1742 33.2498 22.1506 33.2303 22.1266 33.2112C22.1743 33.2229 22.2224 33.2348 22.2709 33.247ZM39.4519 22.9406L39.4622 22.9299L39.4643 22.936L39.4519 22.9406ZM43.0221 22.6346C43.0255 22.6548 43.0286 22.675 43.0311 22.6954C43.0585 22.7029 43.0856 22.7113 43.1123 22.7207L43.0221 22.6346ZM38.3392 29.5566L38.3387 29.5575L38.339 29.5581L38.3392 29.5566ZM42.5979 25.4689C42.6355 25.4725 42.6736 25.4743 42.712 25.4743C42.7638 25.4743 42.8149 25.471 42.8651 25.4646C43.6031 25.4765 44.3185 25.688 44.891 26.1421C46.7554 27.6165 48.1918 29.3732 48.5586 31.7573C47.8344 31.8869 47.116 32.015 46.4015 32.1419C46.1813 32.1603 45.9566 32.1999 45.7311 32.2609C43.39 32.6758 41.0846 33.0792 38.7479 33.4827C38.7479 32.9839 38.7301 32.4729 38.7121 31.9554V31.9553V31.9553V31.9553V31.9553V31.9553V31.9553V31.9552V31.9552V31.9552V31.9552V31.9552V31.9552V31.9551V31.9551V31.9551V31.9551V31.9551V31.9551V31.955V31.955V31.955V31.955V31.955V31.955V31.9549V31.9549V31.9549V31.9549V31.9549V31.9549V31.9548V31.9548V31.9548V31.9548V31.9548V31.9548V31.9547V31.9547V31.9547V31.9547V31.9547V31.9547V31.9546V31.9546V31.9546C38.6722 30.8125 38.6313 29.6388 38.7785 28.4949C38.9869 26.762 40.8159 25.5543 42.5979 25.4689ZM44.2654 32.9788C44.2534 32.9806 44.2414 32.9824 44.2294 32.9843C44.2358 32.9865 44.2423 32.9888 44.2487 32.9912C44.2542 32.987 44.2598 32.9829 44.2654 32.9788ZM34.1078 37.7961C34.1276 37.8114 34.1476 37.8266 34.168 37.8415C34.0948 37.8295 34.0244 37.8144 33.9569 37.7962C33.9816 37.7977 34.0066 37.7985 34.0316 37.7985C34.0572 37.7985 34.0826 37.7977 34.1078 37.7961ZM49.0026 32.9652C49.0142 32.9931 49.0244 33.0216 49.0331 33.0506L49.0476 33.0121C49.0326 32.9968 49.0176 32.9811 49.0026 32.9652ZM46.0219 38.345C45.9455 38.2823 45.8996 38.2352 45.869 38.2039C45.8385 38.1725 45.8232 38.1568 45.8079 38.1568C45.1539 38.2267 44.4991 38.3077 43.844 38.3888L43.8439 38.3888L43.8438 38.3888L43.8437 38.3888L43.8437 38.3889L43.8436 38.3889L43.8435 38.3889L43.8434 38.3889L43.8433 38.3889L43.8432 38.3889L43.8431 38.3889L43.8431 38.3889L43.843 38.3889L43.8429 38.389L43.8428 38.389L43.8427 38.389L43.8426 38.389L43.8425 38.389L43.8425 38.389L43.8424 38.389L43.8423 38.389L43.8422 38.389L43.8421 38.3891L43.842 38.3891L43.8419 38.3891L43.8419 38.3891L43.8418 38.3891L43.8417 38.3891L43.8416 38.3891L43.8415 38.3891L43.8414 38.3892L43.8413 38.3892L43.8413 38.3892L43.8412 38.3892L43.8411 38.3892L43.841 38.3892L43.8409 38.3892L43.8408 38.3892L43.8407 38.3892L43.8407 38.3893L43.8406 38.3893L43.8405 38.3893L43.8404 38.3893L43.8403 38.3893L43.8402 38.3893L43.8401 38.3893C40.0884 38.8537 36.3245 39.3195 32.6048 37.7176C32.5437 37.6863 32.4215 37.749 32.3298 37.8117C29.6288 39.0472 26.8151 38.8643 23.9969 38.6812H23.9969L23.65 38.6587C22.7212 38.5979 21.8053 38.4715 20.8442 38.3388C20.3189 38.2663 19.7801 38.192 19.2184 38.1254C23.9862 44.87 41.4069 44.9013 46.0219 38.345ZM32.5743 34.5806C33.3434 32.9349 34.1014 31.2949 34.8601 29.6533C35.8802 27.446 36.9017 25.2359 37.9533 23.0051C34.3469 22.2836 30.6794 22.2209 27.2869 23.0992C28.3806 25.5186 29.4743 27.8782 30.5608 30.2223L30.5608 30.2224L30.5609 30.2226L30.561 30.2229L30.5611 30.223L30.5612 30.2231L30.5613 30.2233L30.5613 30.2235L30.5614 30.2237L30.5615 30.2239L30.5617 30.2243C31.2359 31.6789 31.9073 33.1274 32.5743 34.5806ZM26.5763 32.2322L26.5763 32.2321V32.2321V32.2321V32.2321V32.2321V32.2321V32.2321V32.232V32.232V32.232V32.232V32.232V32.232V32.232V32.232V32.232V32.2319V32.2319V32.2319V32.2319V32.2319V32.2319V32.2319V32.2319V32.2319V32.2318V32.2318V32.2318V32.2318V32.2318V32.2318V32.2318V32.2318V32.2318V32.2317V32.2317V32.2317V32.2317V32.2317V32.2317V32.2317V32.2317V32.2316V32.2316V32.2316V32.2316C26.6024 31.2743 26.629 30.3005 26.5229 29.3419C26.4006 28.338 26.1867 26.9577 25.5449 26.5186C24.4446 25.8284 22.947 25.3892 21.6634 25.5147C19.6157 25.7029 16.9873 29.7183 17.0484 31.7887C17.678 31.9016 18.3063 32.0146 18.9347 32.1275L18.9347 32.1275C21.4482 32.5792 23.9617 33.031 26.5534 33.4827C26.5534 33.0708 26.5648 32.6531 26.5763 32.2322Z" fill="#F5F5F5"/>
<path d="M20.8688 41.9526L21.0128 41.7482L21.0128 41.7482L20.8688 41.9526ZM31.8713 45.1837L31.8726 44.9337L31.8691 44.9337L31.8713 45.1837ZM16.1522 33.538L16.4022 33.5355L16.402 33.5133L16.3979 33.4914L16.1522 33.538ZM16.1538 33.1992L16.399 33.2482L16.4034 33.2263L16.4038 33.2041L16.1538 33.1992ZM16.2844 31.6319L16.0372 31.5942L16.0369 31.5962L16.2844 31.6319ZM19.035 26.7068L18.873 26.5163L18.8725 26.5168L19.035 26.7068ZM21.3578 23.4129L21.1292 23.3117L21.1279 23.3146L21.3578 23.4129ZM22.7331 21.5621L22.554 21.3877L22.554 21.3877L22.7331 21.5621ZM25.1781 21.7503L25.3808 21.604L25.38 21.6028L25.1781 21.7503ZM27.4397 22.4405L27.3823 22.1972L27.3815 22.1974L27.4397 22.4405ZM37.8922 22.3464L37.8482 22.5925L37.8522 22.5931L37.8922 22.3464ZM39.7565 21.9072L39.5984 21.7135L39.5979 21.714L39.7565 21.9072ZM43.5768 22.5973L43.3395 22.6759L43.3398 22.6767L43.5768 22.5973ZM46.2453 26.5451L46.4289 26.3754L46.4289 26.3754L46.2453 26.5451ZM46.9082 27.2714L46.7214 27.4376L46.7243 27.4408L46.9082 27.2714ZM45.5634 41.2311L45.4033 41.0391L45.4027 41.0395L45.5634 41.2311ZM16.8701 34.3328L17.1052 34.4178L17.1876 34.1901L16.9626 34.1005L16.8701 34.3328ZM16.8173 34.3105L16.9191 34.0821L16.3585 33.8322L16.5849 34.4027L16.8173 34.3105ZM16.8496 34.392L16.6173 34.4842L16.8712 35.1238L17.087 34.4704L16.8496 34.392ZM26.9065 30.4918L27.144 30.4136L26.6582 30.5206L26.9065 30.4918ZM26.928 30.6771L26.6797 30.7059L27.1609 30.7681L26.928 30.6771ZM26.9528 30.6172L27.1819 30.7174L27.2244 30.6202L27.1841 30.5221L26.9528 30.6172ZM22.1974 33.2695L22.0354 33.4599L22.1408 33.5497L22.2729 33.5079L22.1974 33.2695ZM22.2709 33.247L22.3419 33.4867L23.2176 33.2271L22.3318 33.0045L22.2709 33.247ZM22.1266 33.2112L22.1862 32.9684L21.9705 33.4065L22.1266 33.2112ZM39.4622 22.9299L39.6993 22.8507L39.569 22.4608L39.2828 22.7559L39.4622 22.9299ZM39.4519 22.9406L39.2725 22.7665L39.5378 23.1754L39.4519 22.9406ZM39.4643 22.936L39.5501 23.1708L39.7784 23.0874L39.7014 22.8568L39.4643 22.936ZM43.0311 22.6954L42.7831 22.7268L42.8041 22.8925L42.9652 22.9366L43.0311 22.6954ZM43.0221 22.6346L43.1947 22.4538L42.649 21.9329L42.7757 22.6766L43.0221 22.6346ZM43.1123 22.7207L43.0297 22.9566L43.2849 22.5398L43.1123 22.7207ZM38.3387 29.5575L38.1236 29.4301L38.0545 29.5467L38.1146 29.6683L38.3387 29.5575ZM38.3392 29.5566L38.5876 29.5849L38.1241 29.4292L38.3392 29.5566ZM38.339 29.5581L38.1149 29.6689L38.4914 30.4305L38.5874 29.5864L38.339 29.5581ZM42.5979 25.4689L42.6213 25.22L42.6036 25.2184L42.5859 25.2192L42.5979 25.4689ZM42.8651 25.4646L42.8691 25.2147L42.8513 25.2144L42.8336 25.2166L42.8651 25.4646ZM44.891 26.1421L44.7357 26.338L44.736 26.3382L44.891 26.1421ZM48.5586 31.7573L48.6026 32.0034L48.8427 31.9605L48.8056 31.7193L48.5586 31.7573ZM46.4015 32.1419L46.4223 32.3911L46.4338 32.3901L46.4452 32.3881L46.4015 32.1419ZM45.7311 32.2609L45.7748 32.507L45.7857 32.5051L45.7964 32.5022L45.7311 32.2609ZM38.7479 33.4827H38.4979V33.7796L38.7905 33.729L38.7479 33.4827ZM38.7121 31.9554H38.4619L38.4622 31.9641L38.7121 31.9554ZM38.7121 31.9546H38.9622L38.9619 31.9459L38.7121 31.9546ZM38.7785 28.4949L39.0265 28.5268L39.0267 28.5247L38.7785 28.4949ZM44.2654 32.9788L44.414 33.1798L44.2278 32.7316L44.2654 32.9788ZM44.2294 32.9843L44.1914 32.7372L44.1467 33.2202L44.2294 32.9843ZM44.2487 32.9912L44.1628 33.226L44.2898 33.2725L44.3983 33.1915L44.2487 32.9912ZM34.168 37.8415L34.1275 38.0882L34.3161 37.6401L34.168 37.8415ZM34.1078 37.7961L34.2606 37.5983L34.1861 37.5407L34.0922 37.5466L34.1078 37.7961ZM33.9569 37.7962L33.9722 37.5467L33.892 38.0376L33.9569 37.7962ZM49.0331 33.0506L48.7938 33.1229L49.0078 33.8307L49.2673 33.1383L49.0331 33.0506ZM49.0026 32.9652L49.1847 32.7939L48.7716 33.0608L49.0026 32.9652ZM49.0476 33.0121L49.2817 33.0999L49.3373 32.9513L49.2266 32.8377L49.0476 33.0121ZM45.869 38.2039L46.0481 38.0294L46.0481 38.0294L45.869 38.2039ZM46.0219 38.345L46.2263 38.4889L46.3599 38.2991L46.1805 38.1518L46.0219 38.345ZM45.8079 38.1568V37.9068H45.7946L45.7813 37.9082L45.8079 38.1568ZM43.844 38.3888L43.8133 38.1407L43.811 38.141L43.844 38.3888ZM43.8401 38.3893L43.8709 38.6374L43.8732 38.6371L43.8401 38.3893ZM32.6048 37.7176L32.4907 37.94L32.4982 37.9439L32.506 37.9472L32.6048 37.7176ZM32.3298 37.8117L32.4338 38.0391L32.4533 38.0302L32.471 38.0181L32.3298 37.8117ZM23.9969 38.6812L24.0131 38.4317L24.005 38.4312H23.9969V38.6812ZM23.9969 38.6812L23.9808 38.9307L23.9888 38.9312H23.9969V38.6812ZM23.65 38.6587L23.6336 38.9082L23.6338 38.9082L23.65 38.6587ZM20.8442 38.3388L20.8784 38.0912L20.8784 38.0912L20.8442 38.3388ZM19.2184 38.1254L19.2478 37.8772L18.69 37.8111L19.0142 38.2698L19.2184 38.1254ZM34.8601 29.6533L34.6331 29.5484L34.6331 29.5484L34.8601 29.6533ZM32.5743 34.5806L32.3471 34.6849L32.5722 35.1755L32.8008 34.6865L32.5743 34.5806ZM37.9533 23.0051L38.1794 23.1117L38.3157 22.8227L38.0024 22.76L37.9533 23.0051ZM27.2869 23.0992L27.2243 22.8572L26.9368 22.9317L27.0591 23.2022L27.2869 23.0992ZM30.5608 30.2223L30.334 30.3274L30.334 30.3275L30.5608 30.2223ZM30.5608 30.2224L30.3341 30.3277L30.3348 30.3293L30.5608 30.2224ZM30.5609 30.2226L30.7873 30.1166L30.7869 30.1157L30.5609 30.2226ZM30.561 30.2229L30.7882 30.1183L30.7875 30.1169L30.561 30.2229ZM30.5611 30.223L30.334 30.3275L30.3349 30.3295L30.5611 30.223ZM30.5612 30.2231L30.7883 30.1187L30.7874 30.1167L30.5612 30.2231ZM30.5613 30.2233L30.3341 30.3277L30.3344 30.3283L30.5613 30.2233ZM30.5613 30.2235L30.3345 30.3285L30.3347 30.329L30.5613 30.2235ZM30.5615 30.2239L30.7886 30.1193L30.7882 30.1183L30.5615 30.2239ZM30.5617 30.2243L30.3346 30.3289L30.3349 30.3294L30.5617 30.2243ZM26.5763 32.2321L26.8263 32.2417V32.2321H26.5763ZM26.5763 32.2322L26.3265 32.2226L26.3264 32.2254L26.5763 32.2322ZM26.5763 32.2316L26.3263 32.2248V32.2316H26.5763ZM26.5229 29.3419L26.7714 29.3143L26.771 29.3116L26.5229 29.3419ZM25.5449 26.5186L25.6862 26.3121L25.6777 26.3068L25.5449 26.5186ZM21.6634 25.5147L21.6863 25.7637L21.6877 25.7635L21.6634 25.5147ZM17.0484 31.7887L16.7985 31.7961L16.8045 31.999L17.0043 32.0348L17.0484 31.7887ZM18.9347 32.1275L18.9807 31.8818L18.9789 31.8814L18.9347 32.1275ZM18.9347 32.1275L18.8886 32.3732L18.8905 32.3736L18.9347 32.1275ZM26.5534 33.4827L26.5105 33.729L26.8034 33.78V33.4827H26.5534ZM20.7247 42.1569C24.2932 44.673 28.3524 45.4654 31.8736 45.4337L31.8691 44.9337C28.422 44.9647 24.4737 44.1885 21.0128 41.7482L20.7247 42.1569ZM15.9023 33.5406C15.939 37.1643 17.6754 40.0068 20.7247 42.1569L21.0128 41.7482C18.0719 39.6746 16.437 36.9722 16.4022 33.5355L15.9023 33.5406ZM15.8867 33.3728C15.8867 33.4448 15.8935 33.5156 15.9066 33.5847L16.3979 33.4914C16.3905 33.4528 16.3867 33.4132 16.3867 33.3728H15.8867ZM15.9087 33.1503C15.8942 33.2227 15.8867 33.2971 15.8867 33.3728H16.3867C16.3867 33.3303 16.3909 33.2887 16.399 33.2482L15.9087 33.1503ZM16.0369 31.5962C15.958 32.1438 15.9139 32.6764 15.9039 33.1944L16.4038 33.2041C16.4134 32.7079 16.4557 32.1958 16.5318 31.6675L16.0369 31.5962ZM18.8725 26.5168C17.3621 27.8087 16.3523 29.5245 16.0372 31.5942L16.5315 31.6695C16.8277 29.7239 17.7739 28.1144 19.1975 26.8968L18.8725 26.5168ZM21.1279 23.3146C20.5884 24.576 19.9056 25.6383 18.8731 26.5163L19.197 26.8972C20.3039 25.9559 21.0269 24.8223 21.5876 23.5113L21.1279 23.3146ZM22.554 21.3877C22.0322 21.9233 21.4542 22.5778 21.1292 23.3117L21.5864 23.5142C21.8726 22.8678 22.3949 22.2675 22.9122 21.7366L22.554 21.3877ZM25.38 21.6028C24.9908 21.0703 24.5349 20.7402 24.0204 20.7011C23.5051 20.6619 23.0092 20.9205 22.554 21.3877L22.9122 21.7366C23.3127 21.3254 23.6726 21.1761 23.9825 21.1997C24.2932 21.2233 24.6319 21.4265 24.9763 21.8978L25.38 21.6028ZM27.3815 22.1974C26.9389 22.3034 26.5725 22.3327 26.2553 22.2529C25.9471 22.1754 25.6579 21.988 25.3808 21.604L24.9754 21.8966C25.3096 22.3597 25.6928 22.6271 26.1334 22.7378C26.5649 22.8463 27.0238 22.7972 27.498 22.6836L27.3815 22.1974ZM37.9361 22.1003C34.3977 21.4686 30.8777 21.3717 27.3823 22.1972L27.4972 22.6838C30.909 21.878 34.3573 21.9693 37.8483 22.5925L37.9361 22.1003ZM39.5979 21.714C39.4086 21.8694 39.1282 21.99 38.8161 22.0592C38.5055 22.128 38.1863 22.1408 37.9322 22.0996L37.8522 22.5931C38.1788 22.6461 38.5625 22.6275 38.9243 22.5473C39.2845 22.4675 39.646 22.3214 39.9152 22.1004L39.5979 21.714ZM43.8142 22.5188C43.5081 21.5937 42.8082 21.0843 41.9998 20.9695C41.2029 20.8564 40.3169 21.1269 39.5984 21.7135L39.9146 22.1008C40.5409 21.5895 41.29 21.3738 41.9295 21.4646C42.5576 21.5537 43.0955 21.9384 43.3395 22.6759L43.8142 22.5188ZM46.4289 26.3754C45.3548 25.2136 44.3519 24.1244 43.8139 22.5179L43.3398 22.6767C43.9165 24.3987 44.9943 25.5602 46.0618 26.7148L46.4289 26.3754ZM47.095 27.1053C46.8735 26.8563 46.6496 26.6142 46.4289 26.3754L46.0618 26.7148C46.283 26.9541 46.5036 27.1928 46.7214 27.4376L47.095 27.1053ZM45.7235 41.4231C50.2222 37.6714 50.8973 31.2338 47.0921 27.1021L46.7243 27.4408C50.3152 31.3398 49.7067 37.4502 45.4033 41.0391L45.7235 41.4231ZM31.8701 45.4337C38.079 45.4652 42.4848 44.14 45.7241 41.4226L45.4027 41.0395C42.285 43.655 38.011 44.9649 31.8726 44.9337L31.8701 45.4337ZM16.9626 34.1005C16.9479 34.0946 16.9333 34.0885 16.9191 34.0821L16.7155 34.5388C16.736 34.548 16.7567 34.5567 16.7776 34.565L16.9626 34.1005ZM17.087 34.4704C17.0928 34.4528 17.0989 34.4353 17.1052 34.4178L16.635 34.2477C16.6271 34.2695 16.6195 34.2915 16.6122 34.3136L17.087 34.4704ZM16.5849 34.4027L16.6173 34.4842L17.082 34.2997L17.0496 34.2182L16.5849 34.4027ZM26.6582 30.5206L26.6797 30.7059L27.1764 30.6483L27.1549 30.463L26.6582 30.5206ZM27.1841 30.5221C27.1695 30.4867 27.1561 30.4505 27.144 30.4136L26.6691 30.57C26.685 30.6183 26.7025 30.6657 26.7216 30.7122L27.1841 30.5221ZM27.1609 30.7681C27.1675 30.7511 27.1745 30.7342 27.1819 30.7174L26.7238 30.5169C26.7138 30.5398 26.7043 30.5629 26.6952 30.5862L27.1609 30.7681ZM22.2729 33.5079C22.2957 33.5006 22.3188 33.4936 22.3419 33.4867L22.1998 33.0073C22.1737 33.0151 22.1477 33.023 22.1219 33.0312L22.2729 33.5079ZM21.9705 33.4065C21.9925 33.424 22.0141 33.4419 22.0354 33.4599L22.3594 33.0791C22.3342 33.0577 22.3086 33.0366 22.2827 33.0159L21.9705 33.4065ZM22.3318 33.0045C22.2828 32.9923 22.2343 32.9802 22.1862 32.9684L22.067 33.454C22.1142 33.4656 22.1619 33.4774 22.21 33.4895L22.3318 33.0045ZM39.2828 22.7559L39.2725 22.7665L39.6314 23.1146L39.6417 23.104L39.2828 22.7559ZM39.7014 22.8568L39.6993 22.8507L39.2251 23.0092L39.2272 23.0153L39.7014 22.8568ZM39.5378 23.1754L39.5501 23.1708L39.3784 22.7012L39.3661 22.7057L39.5378 23.1754ZM43.2792 22.664C43.2761 22.6401 43.2726 22.6163 43.2686 22.5926L42.7757 22.6766C42.7785 22.6932 42.781 22.7099 42.7831 22.7268L43.2792 22.664ZM43.1949 22.4847C43.1627 22.4734 43.1301 22.4633 43.097 22.4543L42.9652 22.9366C42.987 22.9425 43.0085 22.9492 43.0297 22.9566L43.1949 22.4847ZM42.8495 22.8154L42.9397 22.9015L43.2849 22.5398L43.1947 22.4538L42.8495 22.8154ZM38.5538 29.6849L38.5543 29.684L38.1241 29.4292L38.1236 29.4301L38.5538 29.6849ZM38.5632 29.4474L38.5628 29.4467L38.1146 29.6683L38.1149 29.6689L38.5632 29.4474ZM38.0908 29.5283L38.0906 29.5299L38.5874 29.5864L38.5876 29.5849L38.0908 29.5283ZM42.712 25.2243C42.6814 25.2243 42.6511 25.2229 42.6213 25.22L42.5744 25.7178C42.6198 25.7221 42.6657 25.7243 42.712 25.7243V25.2243ZM42.8336 25.2166C42.7938 25.2217 42.7532 25.2243 42.712 25.2243V25.7243C42.7744 25.7243 42.836 25.7203 42.8966 25.7126L42.8336 25.2166ZM45.0464 25.9463C44.4229 25.4517 43.6512 25.2273 42.8691 25.2147L42.8611 25.7146C43.555 25.7258 44.2141 25.9243 44.7357 26.338L45.0464 25.9463ZM48.8056 31.7193C48.4254 29.2478 46.9358 27.4405 45.0461 25.946L44.736 26.3382C46.5749 27.7926 47.9581 29.4986 48.3115 31.7954L48.8056 31.7193ZM46.4452 32.3881C47.1598 32.2611 47.8783 32.133 48.6026 32.0034L48.5145 31.5112C47.7904 31.6408 47.0721 31.7689 46.3577 31.8958L46.4452 32.3881ZM45.7964 32.5022C46.0078 32.445 46.2177 32.4081 46.4223 32.3911L46.3807 31.8928C46.1449 31.9125 45.9054 31.9548 45.6659 32.0195L45.7964 32.5022ZM38.7905 33.729C41.1275 33.3255 43.4333 32.922 45.7748 32.507L45.6875 32.0147C43.3467 32.4295 41.0417 32.8329 38.7054 33.2363L38.7905 33.729ZM38.4622 31.9641C38.4803 32.4824 38.4979 32.989 38.4979 33.4827H38.9979C38.9979 32.9788 38.9799 32.4634 38.9619 31.9467L38.4622 31.9641ZM38.4621 31.9553V31.9554H38.9621V31.9553H38.4621ZM38.4621 31.9553V31.9553H38.9621V31.9553H38.4621ZM38.4621 31.9553V31.9553H38.9621V31.9553H38.4621ZM38.4621 31.9553V31.9553H38.9621V31.9553H38.4621ZM38.4621 31.9553V31.9553H38.9621V31.9553H38.4621ZM38.4621 31.9553V31.9553H38.9621V31.9553H38.4621ZM38.4621 31.9552V31.9553H38.9621V31.9552H38.4621ZM38.4621 31.9552V31.9552H38.9621V31.9552H38.4621ZM38.4621 31.9552V31.9552H38.9621V31.9552H38.4621ZM38.4621 31.9552V31.9552H38.9621V31.9552H38.4621ZM38.4621 31.9552V31.9552H38.9621V31.9552H38.4621ZM38.4621 31.9552V31.9552H38.9621V31.9552H38.4621ZM38.4621 31.9551V31.9552H38.9621V31.9551H38.4621ZM38.4621 31.9551V31.9551H38.9621V31.9551H38.4621ZM38.4621 31.9551V31.9551H38.9621V31.9551H38.4621ZM38.4621 31.9551V31.9551H38.9621V31.9551H38.4621ZM38.4621 31.9551V31.9551H38.9621V31.9551H38.4621ZM38.4621 31.9551V31.9551H38.9621V31.9551H38.4621ZM38.4621 31.955V31.9551H38.9621V31.955H38.4621ZM38.4621 31.955V31.955H38.9621V31.955H38.4621ZM38.4621 31.955V31.955H38.9621V31.955H38.4621ZM38.4621 31.955V31.955H38.9621V31.955H38.4621ZM38.4621 31.955V31.955H38.9621V31.955H38.4621ZM38.4621 31.955V31.955H38.9621V31.955H38.4621ZM38.4621 31.9549V31.955H38.9621V31.9549H38.4621ZM38.4621 31.9549V31.9549H38.9621V31.9549H38.4621ZM38.4621 31.9549V31.9549H38.9621V31.9549H38.4621ZM38.4621 31.9549V31.9549H38.9621V31.9549H38.4621ZM38.4621 31.9549V31.9549H38.9621V31.9549H38.4621ZM38.4621 31.9549V31.9549H38.9621V31.9549H38.4621ZM38.4621 31.9548V31.9549H38.9621V31.9548H38.4621ZM38.4621 31.9548V31.9548H38.9621V31.9548H38.4621ZM38.4621 31.9548V31.9548H38.9621V31.9548H38.4621ZM38.4621 31.9548V31.9548H38.9621V31.9548H38.4621ZM38.4621 31.9548V31.9548H38.9621V31.9548H38.4621ZM38.4621 31.9548V31.9548H38.9621V31.9548H38.4621ZM38.4621 31.9547V31.9548H38.9621V31.9547H38.4621ZM38.4621 31.9547V31.9547H38.9621V31.9547H38.4621ZM38.4621 31.9547V31.9547H38.9621V31.9547H38.4621ZM38.4621 31.9547V31.9547H38.9621V31.9547H38.4621ZM38.4621 31.9547V31.9547H38.9621V31.9547H38.4621ZM38.4621 31.9547V31.9547H38.9621V31.9547H38.4621ZM38.4621 31.9546V31.9547H38.9621V31.9546H38.4621ZM38.4621 31.9546V31.9546H38.9621V31.9546H38.4621ZM38.4621 31.9546V31.9546H38.9621V31.9546H38.4621ZM38.5305 28.463C38.3803 29.6306 38.4225 30.8249 38.4622 31.9633L38.9619 31.9459C38.9219 30.8002 38.8823 29.6471 39.0265 28.5268L38.5305 28.463ZM42.5859 25.2192C41.6456 25.2643 40.6947 25.6045 39.9482 26.164C39.201 26.724 38.6445 27.5157 38.5303 28.465L39.0267 28.5247C39.121 27.7412 39.5831 27.0625 40.248 26.5641C40.9136 26.0653 41.7682 25.759 42.6098 25.7187L42.5859 25.2192ZM44.2278 32.7316C44.2157 32.7335 44.2036 32.7353 44.1914 32.7372L44.2673 33.2314C44.2791 33.2296 44.291 33.2278 44.3029 33.226L44.2278 32.7316ZM44.1467 33.2202C44.1521 33.2221 44.1575 33.224 44.1628 33.226L44.3346 32.7564C44.3271 32.7537 44.3195 32.751 44.312 32.7483L44.1467 33.2202ZM44.3983 33.1915C44.4035 33.1876 44.4087 33.1837 44.414 33.1798L44.1167 32.7778C44.1108 32.7821 44.1049 32.7865 44.0991 32.7909L44.3983 33.1915ZM34.3161 37.6401C34.2974 37.6263 34.2789 37.6124 34.2606 37.5983L33.9549 37.9939C33.9763 38.0105 33.9979 38.0268 34.0198 38.0429L34.3161 37.6401ZM33.892 38.0376C33.9679 38.0581 34.0465 38.0749 34.1275 38.0882L34.2084 37.5948C34.1431 37.5841 34.0809 37.5707 34.0218 37.5548L33.892 38.0376ZM34.0316 37.5485C34.0117 37.5485 33.9919 37.5479 33.9722 37.5467L33.9416 38.0457C33.9714 38.0476 34.0014 38.0485 34.0316 38.0485V37.5485ZM34.0922 37.5466C34.0722 37.5479 34.052 37.5485 34.0316 37.5485V38.0485C34.0624 38.0485 34.093 38.0475 34.1234 38.0456L34.0922 37.5466ZM49.2725 32.9783C49.2613 32.9413 49.2483 32.9051 49.2336 32.8696L48.7716 33.0608C48.7801 33.0812 48.7875 33.102 48.7938 33.1229L49.2725 32.9783ZM48.8134 32.9244L48.799 32.9629L49.2673 33.1383L49.2817 33.0999L48.8134 32.9244ZM48.8206 33.1365C48.8364 33.1534 48.8524 33.1701 48.8685 33.1866L49.2266 32.8377C49.2128 32.8235 49.1988 32.8088 49.1847 32.7939L48.8206 33.1365ZM45.69 38.3783C45.7229 38.4121 45.7762 38.4668 45.8632 38.5382L46.1805 38.1518C46.1147 38.0978 46.0763 38.0584 46.0481 38.0294L45.69 38.3783ZM45.8079 38.4068C45.7668 38.4068 45.7335 38.3958 45.7109 38.3849C45.6903 38.375 45.6775 38.3646 45.6741 38.3618C45.6703 38.3587 45.6693 38.3575 45.6733 38.3614C45.6771 38.3651 45.6818 38.3699 45.69 38.3783L46.0481 38.0294C46.0371 38.0181 46.0143 37.9942 45.9914 37.9754C45.9704 37.9582 45.9054 37.9068 45.8079 37.9068V38.4068ZM43.8747 38.6369C44.5302 38.5558 45.1828 38.475 45.8345 38.4054L45.7813 37.9082C45.1249 37.9784 44.4681 38.0597 43.8133 38.1407L43.8747 38.6369ZM43.877 38.6366L43.877 38.6366L43.811 38.141L43.8109 38.141L43.877 38.6366ZM43.8769 38.6366L43.877 38.6366L43.8109 38.141L43.8108 38.141L43.8769 38.6366ZM43.8768 38.6366L43.8769 38.6366L43.8108 38.141L43.8107 38.141L43.8768 38.6366ZM43.8767 38.6367L43.8768 38.6366L43.8107 38.141L43.8106 38.141L43.8767 38.6367ZM43.8766 38.6367L43.8767 38.6367L43.8106 38.141L43.8105 38.1411L43.8766 38.6367ZM43.8765 38.6367L43.8766 38.6367L43.8105 38.1411L43.8104 38.1411L43.8765 38.6367ZM43.8764 38.6367L43.8765 38.6367L43.8104 38.1411L43.8104 38.1411L43.8764 38.6367ZM43.8764 38.6367L43.8764 38.6367L43.8104 38.1411L43.8103 38.1411L43.8764 38.6367ZM43.8763 38.6367L43.8764 38.6367L43.8103 38.1411L43.8102 38.1411L43.8763 38.6367ZM43.8762 38.6367L43.8763 38.6367L43.8102 38.1411L43.8101 38.1411L43.8762 38.6367ZM43.8761 38.6367L43.8762 38.6367L43.8101 38.1411L43.81 38.1411L43.8761 38.6367ZM43.876 38.6368L43.8761 38.6367L43.81 38.1411L43.8099 38.1411L43.876 38.6368ZM43.8759 38.6368L43.876 38.6368L43.8099 38.1411L43.8098 38.1411L43.8759 38.6368ZM43.8758 38.6368L43.8759 38.6368L43.8098 38.1411L43.8098 38.1412L43.8758 38.6368ZM43.8758 38.6368L43.8758 38.6368L43.8098 38.1412L43.8097 38.1412L43.8758 38.6368ZM43.8757 38.6368L43.8758 38.6368L43.8097 38.1412L43.8096 38.1412L43.8757 38.6368ZM43.8756 38.6368L43.8757 38.6368L43.8096 38.1412L43.8095 38.1412L43.8756 38.6368ZM43.8755 38.6368L43.8756 38.6368L43.8095 38.1412L43.8094 38.1412L43.8755 38.6368ZM43.8754 38.6368L43.8755 38.6368L43.8094 38.1412L43.8093 38.1412L43.8754 38.6368ZM43.8753 38.6368L43.8754 38.6368L43.8093 38.1412L43.8092 38.1412L43.8753 38.6368ZM43.8752 38.6369L43.8753 38.6368L43.8092 38.1412L43.8092 38.1412L43.8752 38.6369ZM43.8752 38.6369L43.8752 38.6369L43.8092 38.1412L43.8091 38.1413L43.8752 38.6369ZM43.8751 38.6369L43.8752 38.6369L43.8091 38.1413L43.809 38.1413L43.8751 38.6369ZM43.875 38.6369L43.8751 38.6369L43.809 38.1413L43.8089 38.1413L43.875 38.6369ZM43.8749 38.6369L43.875 38.6369L43.8089 38.1413L43.8088 38.1413L43.8749 38.6369ZM43.8748 38.6369L43.8749 38.6369L43.8088 38.1413L43.8087 38.1413L43.8748 38.6369ZM43.8747 38.6369L43.8748 38.6369L43.8087 38.1413L43.8086 38.1413L43.8747 38.6369ZM43.8746 38.6369L43.8747 38.6369L43.8086 38.1413L43.8086 38.1413L43.8746 38.6369ZM43.8746 38.6369L43.8746 38.6369L43.8086 38.1413L43.8085 38.1413L43.8746 38.6369ZM43.8745 38.637L43.8746 38.6369L43.8085 38.1413L43.8084 38.1413L43.8745 38.637ZM43.8744 38.637L43.8745 38.637L43.8084 38.1413L43.8083 38.1414L43.8744 38.637ZM43.8743 38.637L43.8744 38.637L43.8083 38.1414L43.8082 38.1414L43.8743 38.637ZM43.8742 38.637L43.8743 38.637L43.8082 38.1414L43.8081 38.1414L43.8742 38.637ZM43.8741 38.637L43.8742 38.637L43.8081 38.1414L43.808 38.1414L43.8741 38.637ZM43.874 38.637L43.8741 38.637L43.808 38.1414L43.808 38.1414L43.874 38.637ZM43.874 38.637L43.874 38.637L43.808 38.1414L43.8079 38.1414L43.874 38.637ZM43.8739 38.637L43.874 38.637L43.8079 38.1414L43.8078 38.1414L43.8739 38.637ZM43.8738 38.637L43.8739 38.637L43.8078 38.1414L43.8077 38.1414L43.8738 38.637ZM43.8737 38.6371L43.8738 38.637L43.8077 38.1414L43.8076 38.1414L43.8737 38.6371ZM43.8736 38.6371L43.8737 38.6371L43.8076 38.1414L43.8075 38.1415L43.8736 38.6371ZM43.8735 38.6371L43.8736 38.6371L43.8075 38.1415L43.8074 38.1415L43.8735 38.6371ZM43.8734 38.6371L43.8735 38.6371L43.8074 38.1415L43.8074 38.1415L43.8734 38.6371ZM43.8734 38.6371L43.8734 38.6371L43.8074 38.1415L43.8073 38.1415L43.8734 38.6371ZM43.8733 38.6371L43.8734 38.6371L43.8073 38.1415L43.8072 38.1415L43.8733 38.6371ZM43.8732 38.6371L43.8733 38.6371L43.8072 38.1415L43.8071 38.1415L43.8732 38.6371ZM32.506 37.9472C36.2973 39.58 40.1292 39.1005 43.8708 38.6374L43.8094 38.1412C40.0477 38.6068 36.3517 39.059 32.7037 37.488L32.506 37.9472ZM32.471 38.0181C32.4887 38.0059 32.5073 37.9942 32.5253 37.9841C32.5435 37.9739 32.5589 37.9665 32.5706 37.9619C32.5835 37.9568 32.585 37.9578 32.5773 37.9587C32.5712 37.9594 32.5352 37.9629 32.4907 37.94L32.719 37.4952C32.6439 37.4567 32.5697 37.4563 32.5206 37.4619C32.4699 37.4677 32.4237 37.4823 32.387 37.4969C32.3133 37.5259 32.2426 37.5685 32.1886 37.6054L32.471 38.0181ZM23.9807 38.9306C26.7891 39.1132 29.6666 39.3048 32.4338 38.0391L32.2258 37.5844C29.5911 38.7896 26.8412 38.6155 24.0131 38.4317L23.9807 38.9306ZM23.9969 38.9312H23.9969V38.4312H23.9969V38.9312ZM23.6338 38.9082L23.9808 38.9307L24.013 38.4317L23.6661 38.4092L23.6338 38.9082ZM20.81 38.5865C21.7695 38.7189 22.6944 38.8467 23.6336 38.9082L23.6663 38.4093C22.748 38.3491 21.841 38.224 20.8784 38.0912L20.81 38.5865ZM19.189 38.3737C19.7479 38.4399 20.2844 38.5139 20.81 38.5865L20.8784 38.0912C20.3534 38.0187 19.8123 37.944 19.2478 37.8772L19.189 38.3737ZM45.8174 38.2011C44.705 39.7816 42.8047 40.9847 40.4758 41.7888C38.1502 42.5917 35.4197 42.9886 32.6788 42.9731C29.9381 42.9575 27.1979 42.5296 24.853 41.6917C22.5052 40.8527 20.5743 39.6105 19.4225 37.9811L19.0142 38.2698C20.2464 40.0127 22.281 41.3036 24.6847 42.1625C27.0913 43.0225 29.8888 43.4572 32.676 43.473C35.4632 43.4889 38.2512 43.0858 40.6389 42.2614C43.0233 41.4382 45.0313 40.1866 46.2263 38.4889L45.8174 38.2011ZM34.6331 29.5484C33.8744 31.1901 33.1166 32.8296 32.3478 34.4748L32.8008 34.6865C33.5701 33.0402 34.3283 31.3997 35.087 29.7582L34.6331 29.5484ZM37.7272 22.8985C36.6751 25.1303 35.6532 27.3413 34.6331 29.5484L35.087 29.7582C36.1072 27.5508 37.1283 25.3415 38.1794 23.1117L37.7272 22.8985ZM27.3496 23.3413C30.6975 22.4745 34.3257 22.5343 37.9043 23.2503L38.0024 22.76C34.3681 22.0329 30.6613 21.9673 27.2243 22.8572L27.3496 23.3413ZM30.7876 30.1171C29.701 27.7729 28.6078 25.4143 27.5147 22.9963L27.0591 23.2022C28.1534 25.6228 29.2475 27.9835 30.334 30.3274L30.7876 30.1171ZM30.7876 30.1171L30.7875 30.117L30.334 30.3275L30.3341 30.3277L30.7876 30.1171ZM30.7869 30.1157L30.7869 30.1156L30.3348 30.3293L30.3349 30.3294L30.7869 30.1157ZM30.7875 30.1169L30.7873 30.1166L30.3345 30.3286L30.3346 30.3288L30.7875 30.1169ZM30.7882 30.1185L30.7882 30.1184L30.3339 30.3274L30.334 30.3275L30.7882 30.1185ZM30.7874 30.1167L30.7873 30.1166L30.3349 30.3295L30.335 30.3296L30.7874 30.1167ZM30.7884 30.1189L30.7883 30.1187L30.334 30.3275L30.3341 30.3277L30.7884 30.1189ZM30.7882 30.1184L30.7881 30.1183L30.3344 30.3283L30.3345 30.3285L30.7882 30.1184ZM30.7881 30.1181L30.788 30.1179L30.3347 30.329L30.3348 30.3292L30.7881 30.1181ZM30.7882 30.1183L30.7881 30.1181L30.3348 30.3292L30.3349 30.3294L30.7882 30.1183ZM30.7888 30.1197L30.7886 30.1193L30.3345 30.3285L30.3346 30.3289L30.7888 30.1197ZM32.8015 34.4764C32.1343 33.0227 31.4627 31.5737 30.7885 30.1192L30.3349 30.3294C31.0091 31.7841 31.6804 33.2322 32.3471 34.6849L32.8015 34.4764ZM26.3265 32.2225L26.3265 32.2226L26.8261 32.2418L26.8261 32.2417L26.3265 32.2225ZM26.3263 32.2321V32.2321H26.8263V32.2321H26.3263ZM26.3263 32.2321V32.2321H26.8263V32.2321H26.3263ZM26.3263 32.2321V32.2321H26.8263V32.2321H26.3263ZM26.3263 32.2321V32.2321H26.8263V32.2321H26.3263ZM26.3263 32.2321V32.2321H26.8263V32.2321H26.3263ZM26.3263 32.2321V32.2321H26.8263V32.2321H26.3263ZM26.3263 32.232V32.2321H26.8263V32.232H26.3263ZM26.3263 32.232V32.232H26.8263V32.232H26.3263ZM26.3263 32.232V32.232H26.8263V32.232H26.3263ZM26.3263 32.232V32.232H26.8263V32.232H26.3263ZM26.3263 32.232V32.232H26.8263V32.232H26.3263ZM26.3263 32.232V32.232H26.8263V32.232H26.3263ZM26.3263 32.232V32.232H26.8263V32.232H26.3263ZM26.3263 32.232V32.232H26.8263V32.232H26.3263ZM26.3263 32.232V32.232H26.8263V32.232H26.3263ZM26.3263 32.2319V32.232H26.8263V32.2319H26.3263ZM26.3263 32.2319V32.2319H26.8263V32.2319H26.3263ZM26.3263 32.2319V32.2319H26.8263V32.2319H26.3263ZM26.3263 32.2319V32.2319H26.8263V32.2319H26.3263ZM26.3263 32.2319V32.2319H26.8263V32.2319H26.3263ZM26.3263 32.2319V32.2319H26.8263V32.2319H26.3263ZM26.3263 32.2319V32.2319H26.8263V32.2319H26.3263ZM26.3263 32.2319V32.2319H26.8263V32.2319H26.3263ZM26.3263 32.2319V32.2319H26.8263V32.2319H26.3263ZM26.3263 32.2318V32.2319H26.8263V32.2318H26.3263ZM26.3263 32.2318V32.2318H26.8263V32.2318H26.3263ZM26.3263 32.2318V32.2318H26.8263V32.2318H26.3263ZM26.3263 32.2318V32.2318H26.8263V32.2318H26.3263ZM26.3263 32.2318V32.2318H26.8263V32.2318H26.3263ZM26.3263 32.2318V32.2318H26.8263V32.2318H26.3263ZM26.3263 32.2318V32.2318H26.8263V32.2318H26.3263ZM26.3263 32.2318V32.2318H26.8263V32.2318H26.3263ZM26.3263 32.2318V32.2318H26.8263V32.2318H26.3263ZM26.3263 32.2317V32.2318H26.8263V32.2317H26.3263ZM26.3263 32.2317V32.2317H26.8263V32.2317H26.3263ZM26.3263 32.2317V32.2317H26.8263V32.2317H26.3263ZM26.3263 32.2317V32.2317H26.8263V32.2317H26.3263ZM26.3263 32.2317V32.2317H26.8263V32.2317H26.3263ZM26.3263 32.2317V32.2317H26.8263V32.2317H26.3263ZM26.3263 32.2317V32.2317H26.8263V32.2317H26.3263ZM26.3263 32.2317V32.2317H26.8263V32.2317H26.3263ZM26.3263 32.2316V32.2317H26.8263V32.2316H26.3263ZM26.3263 32.2316V32.2316H26.8263V32.2316H26.3263ZM26.3263 32.2316V32.2316H26.8263V32.2316H26.3263ZM26.3263 32.2316V32.2316H26.8263V32.2316H26.3263ZM26.2744 29.3694C26.3783 30.308 26.3526 31.2645 26.3264 32.2248L26.8262 32.2384C26.8523 31.284 26.8797 30.293 26.7713 29.3143L26.2744 29.3694ZM25.4037 26.7249C25.6459 26.8906 25.8408 27.2669 25.9882 27.7867C26.1314 28.2919 26.2137 28.8711 26.2747 29.3721L26.771 29.3116C26.7098 28.8087 26.6239 28.1959 26.4692 27.6503C26.3186 27.1191 26.0856 26.5857 25.686 26.3122L25.4037 26.7249ZM21.6877 25.7635C22.906 25.6444 24.349 26.0636 25.412 26.7304L25.6777 26.3068C24.5402 25.5933 22.988 25.134 21.6391 25.2659L21.6877 25.7635ZM17.2983 31.7813C17.2845 31.3123 17.4242 30.7097 17.6877 30.0547C17.9497 29.4037 18.3269 28.7186 18.7695 28.0898C19.2126 27.4605 19.7162 26.8945 20.2279 26.477C20.7437 26.0561 21.2453 25.8042 21.6863 25.7637L21.6405 25.2658C21.0577 25.3194 20.4628 25.6399 19.9118 26.0896C19.3566 26.5426 18.8231 27.1452 18.3607 27.802C17.8979 28.4593 17.5015 29.1781 17.2239 29.8681C16.9478 30.5542 16.7818 31.2299 16.7985 31.7961L17.2983 31.7813ZM18.9789 31.8814C18.3506 31.7685 17.7222 31.6556 17.0926 31.5426L17.0043 32.0348C17.6338 32.1477 18.2621 32.2606 18.8904 32.3735L18.9789 31.8814ZM18.9808 31.8818L18.9807 31.8818L18.8886 32.3732L18.8886 32.3732L18.9808 31.8818ZM26.5964 33.2364C24.0054 32.7848 21.4925 32.3332 18.9789 31.8814L18.8905 32.3736C21.4039 32.8253 23.918 33.2771 26.5105 33.729L26.5964 33.2364ZM26.3264 32.2254C26.3149 32.6457 26.3034 33.0668 26.3034 33.4827H26.8034C26.8034 33.0748 26.8147 32.6605 26.8262 32.239L26.3264 32.2254Z" fill="white"/>
</svg>
