<svg width="65" height="65" viewBox="0 0 65 65" fill="none" xmlns="http://www.w3.org/2000/svg">
<rect x="0.3125" y="0.280273" width="64.43" height="64.43" rx="32.215" fill="#357EEB"/>
<path d="M34.7016 38.2702L37.5891 35.6219C37.684 35.5305 37.7981 35.4614 37.9232 35.4197C38.0482 35.378 38.181 35.3648 38.3118 35.381L38.7936 35.6219L45.5321 38.7503C46.0139 38.9912 46.0139 39.2321 46.0139 39.7122C45.9981 40.5261 45.8195 41.3286 45.4889 42.0724C45.1582 42.8162 44.682 43.4864 44.0883 44.0434C43.4193 44.6884 42.6266 45.1915 41.7581 45.5224C40.8896 45.8533 39.9632 46.0052 39.0345 45.9689C36.6858 45.9554 34.3747 45.3776 32.296 44.2843C29.8481 42.983 27.5824 41.3647 25.5575 39.4713C24.2173 37.8039 23.0096 36.0341 21.9457 34.1782C20.9907 32.4869 20.1858 30.7152 19.54 28.8834C19.1424 27.3938 18.9798 25.8512 19.0582 24.3114C19.2162 22.9579 19.807 21.6917 20.7428 20.7012C22.0297 19.6339 23.6432 19.0394 25.3149 19.0166C25.501 19.0202 25.6839 19.0654 25.8503 19.1487C26.0168 19.2321 26.1625 19.3515 26.2768 19.4984L29.887 26.2369C29.9124 26.4195 29.997 26.5888 30.1279 26.7187C30.1441 26.8491 30.131 26.9815 30.0896 27.1062C30.0482 27.2309 29.9796 27.3449 29.8887 27.4397L26.7586 30.3272C26.6387 30.5048 26.5746 30.7142 26.5746 30.9286C26.5746 31.1429 26.6387 31.3523 26.7586 31.53C27.5842 32.9113 28.5525 34.202 29.6478 35.381C30.8213 36.5525 32.1117 37.6007 33.4988 38.5094C33.9789 38.7503 34.4607 38.7503 34.7016 38.2702Z" fill="white"/>
</svg>
