<svg width="66" height="66" viewBox="0 0 66 66" fill="none" xmlns="http://www.w3.org/2000/svg">
<rect x="0.734375" y="0.956055" width="64.43" height="64.43" rx="5" fill="#357EEB"/>
<path d="M47.9537 40.6742H37.5775V31.8845C37.5775 26.2813 33.0188 21.7227 27.4157 21.7227C21.8126 21.7227 17.2539 26.2813 17.2539 31.8845C17.2539 37.4876 21.8126 42.0463 27.4157 42.0463H47.2677V43.9328C47.2677 44.3115 47.575 44.6189 47.9537 44.6189C48.3324 44.6189 48.6397 44.3115 48.6397 43.9328V41.3602C48.6397 40.9815 48.3324 40.6742 47.9537 40.6742ZM18.626 31.8845C18.626 27.0377 22.5689 23.0947 27.4157 23.0947C32.2625 23.0947 36.2054 27.0377 36.2054 31.8845V40.6742H27.4157C22.5689 40.6742 18.626 36.7313 18.626 31.8845Z" fill="white"/>
<path d="M32.3033 31.884C32.3033 29.189 30.1104 26.9961 27.4153 26.9961C24.7202 26.9961 22.5273 29.189 22.5273 31.884C22.5273 34.5791 24.7202 36.772 27.4153 36.772C30.1104 36.772 32.3033 34.5791 32.3033 31.884ZM23.8994 31.884C23.8994 29.9453 25.4766 28.3682 27.4153 28.3682C29.354 28.3682 30.9312 29.9453 30.9312 31.884C30.9312 33.8228 29.354 35.3999 27.4153 35.3999C25.4766 35.3999 23.8994 33.8228 23.8994 31.884Z" fill="white"/>
<path d="M31.467 38.8372C31.6028 38.9891 31.7904 39.0666 31.9794 39.0666C32.142 39.0666 32.305 39.0093 32.4356 38.8927L34.408 37.1348C34.6906 36.8827 34.7153 36.4491 34.4635 36.1661C34.2114 35.8831 33.7779 35.8584 33.4949 36.1105L31.5225 37.8685C31.2396 38.1206 31.2149 38.5538 31.467 38.8372Z" fill="white"/>
</svg>
