<svg width="65" height="66" viewBox="0 0 65 66" fill="none" xmlns="http://www.w3.org/2000/svg">
<rect x="0.292969" y="0.962891" width="64.4325" height="64.4325" rx="5" fill="#357EEB"/>
<path d="M47.6919 48.8516H17.3257C17.0318 48.8516 16.8359 48.6557 16.8359 48.3618V17.9956C16.8359 17.7018 17.0318 17.5059 17.3257 17.5059H47.6919C47.9857 17.5059 48.1816 17.7018 48.1816 17.9956V48.3618C48.1816 48.6557 47.9857 48.8516 47.6919 48.8516ZM17.8155 47.872H47.2021V18.4854H17.8155V47.872Z" fill="white"/>
<path d="M31.5311 46.8923H19.2867C18.9928 46.8923 18.7969 46.6964 18.7969 46.4026V19.9546C18.7969 19.6608 18.9928 19.4648 19.2867 19.4648H31.5311C31.8249 19.4648 32.0208 19.6608 32.0208 19.9546V46.4026C32.0208 46.6964 31.8249 46.8923 31.5311 46.8923ZM19.7764 45.9128H31.0413V20.4444H19.7764V45.9128Z" fill="white"/>
<path d="M45.7342 46.8923H33.4898C33.1959 46.8923 33 46.6964 33 46.4026V19.9546C33 19.6608 33.1959 19.4648 33.4898 19.4648H45.7342C46.0281 19.4648 46.224 19.6608 46.224 19.9546V46.4026C46.224 46.6964 46.0281 46.8923 45.7342 46.8923ZM33.9796 45.9128H45.2444V20.4444H33.9796V45.9128Z" fill="white"/>
<path d="M21.6304 26.2242C21.4835 26.2242 21.3855 26.1752 21.2876 26.0772C21.0916 25.8813 21.0916 25.5875 21.2876 25.3915L24.9609 21.7182C25.1568 21.5223 25.4507 21.5223 25.6466 21.7182C25.8425 21.9141 25.8425 22.208 25.6466 22.4039L21.9732 26.0772C21.8753 26.1752 21.7284 26.2242 21.6304 26.2242Z" fill="white"/>
<path d="M21.439 30.4365C21.2921 30.4365 21.1941 30.3876 21.0962 30.2896C20.9002 30.0937 20.9002 29.7998 21.0962 29.6039L29.0795 21.6206C29.2754 21.4247 29.5693 21.4247 29.7652 21.6206C29.9611 21.8165 29.9611 22.1103 29.7652 22.3063L21.7818 30.2896C21.6839 30.3876 21.537 30.4365 21.439 30.4365Z" fill="white"/>
<path d="M35.8413 26.2242C35.6944 26.2242 35.5965 26.1752 35.4985 26.0772C35.3026 25.8813 35.3026 25.5875 35.4985 25.3915L39.1718 21.7182C39.3677 21.5223 39.6616 21.5223 39.8575 21.7182C40.0534 21.9141 40.0534 22.208 39.8575 22.4039L36.1842 26.0772C36.0862 26.1752 35.9393 26.2242 35.8413 26.2242Z" fill="white"/>
<path d="M35.6499 30.4375C35.503 30.4375 35.405 30.3885 35.3071 30.2906C35.1112 30.0947 35.1112 29.8008 35.3071 29.6049L43.2904 21.6215C43.4864 21.4256 43.7802 21.4256 43.9761 21.6215C44.172 21.8175 44.172 22.1113 43.9761 22.3072L35.9928 30.2906C35.8948 30.3885 35.7479 30.4375 35.6499 30.4375Z" fill="white"/>
</svg>
